<svg xmlns="http://www.w3.org/2000/svg" viewBox="0 0 233 298" width="233" height="298"><defs></defs><g transform="matrix(1,0,0,1,-853.310387009,-403.215444602)">
<g>
	<g>
		<path d="M853.3103870090805,403.2154946021303 C853.3103870090806,403.3910782292858 985.3452559623238,403.21544460213033 985.3452559623238,403.21544460213033 C985.3452559623238,403.21544460213033 999.0048225461853,404.5081117350333 999.0048225461853,404.5081117350333 C999.0048225461853,404.5081117350333 1014.3995847347136,407.5295132290162 1014.3995847347136,407.5295132290162 C1014.3995847347136,407.5295132290162 1023.4637892166621,410.76672911542636 1023.4637892166621,410.76672911542636 C1023.4637892166621,410.76672911542636 1031.305047670233,414.00394500183654 1031.305047670233,414.00394500183654 C1031.305047670233,414.00394500183654 1036.9881556133982,417.3131012144334 1036.9881556133982,417.3131012144334 C1036.9881556133982,417.3131012144334 1041.3763903742645,420.98194588569834 1041.3763903742645,420.91000555951166 C1041.3763903742645,420.838065233325 1045.9804263552928,424.21916177210846 1045.9804263552928,424.21916177210846 C1045.9804263552928,424.21916177210846 1049.5053903741843,427.6721854648135 1049.5053903741843,427.7441257910001 C1049.5053903741843,427.8160661171867 1052.0232293432584,431.1971560698376 1052.0232293432584,431.1971560698376 C1052.0232293432584,431.1971560698376 1028.6433346349183,431.1971560698376 1028.8591490273457,431.1971560698376 C1029.074963419773,431.1971560698376 1022.6005316469527,436.7004296628675 1022.3847172545254,436.8443037291082 C1022.1689028620981,436.9881777953489 1016.4138545927464,440.7289627928004 1016.3419142665597,440.7289627928004 C1016.269973940373,440.7289627928004 1009.4358602950172,443.82229802683736 1009.2919796426439,444.11005274545136 C1009.1480989902707,444.39780746406535 999.0767562862393,448.06665213533023 999.0048225461853,448.21052620157093 C998.9328888061314,448.3544002678116 993.6094627355017,451.23192769555374 993.6094627355017,451.23192769555374 C993.6094627355017,451.23192769555374 987.2789116150547,453.9655744709226 987.206971288868,453.9655744709226 C987.1350309626813,453.9655744709226 977.7830783482514,457.27473068351946 977.7830783482514,457.27473068351946 C977.7830783482514,457.27473068351946 969.6538069740194,460.60763758732236 969.60851891853,460.60763758732236 C969.5632308630405,460.60763758732236 966.1664110834116,461.6493292075552 966.1211230279221,461.6493292075552 C966.0758349724325,461.6493292075552 961.2297144871717,461.5587448035794 961.2297144871717,461.5587448035794 C961.2297144871717,461.5587448035794 958.6028497018417,462.691020827788 958.6028497018417,462.7363088832775 C958.6028497018417,462.781596938767 956.0665610274908,465.8613754509791 956.0665610274908,465.8613754509791 C956.0665610274908,465.8613754509791 951.6280620671242,470.0281294924151 951.6280620671242,470.0281294924151 C951.6280620671242,470.0281294924151 929.6620158357358,491.2695253709877 929.6620158357358,491.2695253709877 C929.6620158357358,491.2695253709877 928.303291241083,492.7641224251058 928.303291241083,492.7641224251058 C928.303291241083,492.7641224251058 928.6656164174909,493.94168650480395 928.6656164174909,493.98697456029345 C928.6656164174909,494.03226261578294 930.1149212696212,495.43627526592536 930.1149212696212,495.5268596699011 C930.1149212696212,495.61744407387687 931.9265554446578,496.47796688615813 931.9265554446578,496.47796688615813 C931.9265554446578,496.47796688615813 933.6476052157186,496.7044237495992 933.6476052157186,496.7044237495992 C933.6476052157186,496.7044237495992 935.7309843096858,496.8402962090645 935.7309843096858,496.8402962090645 C935.7309843096858,496.8402962090645 936.6820915259428,496.4326788306686 936.6820915259428,496.4326788306686 C936.6820915259428,496.4326788306686 937.7690712016652,494.62104880213036 937.7690712016652,494.80220931708516 C937.7690712016652,494.98336983203995 938.9919274833512,495.66273212936636 939.0372155388407,495.66273212936636 C939.0825035943301,495.66273212936636 941.3017551477626,496.11564170975015 941.3017551477626,496.11564170975015 C941.3017551477626,496.11564170975015 943.9739121350805,495.97976925028485 943.9739121350805,495.97976925028485 C943.9739121350805,495.97976925028485 946.6913613243862,494.4851763426651 946.6913613243862,494.5304643981546 C946.6913613243862,494.5757524536441 949.8164320385863,492.0394637792931 949.9070122960636,491.9941757238036 C949.9975925535409,491.9488876683141 951.6733542691122,490.2278337507549 951.7639345265897,490.1372534932775 C951.8545147840671,490.04667323580014 953.6208609036141,488.1444588032861 953.7114411610916,488.1444588032861 C953.802021418569,488.1444588032861 957.1535407032131,487.0574749810654 957.0629604457358,487.2386396425186 C956.9723801882585,487.4198043039718 955.1607460132219,490.99778045205716 955.0248735537566,491.22423316899983 C954.8890010942913,491.4506858859425 953.4849842976505,493.94168235830557 953.4849842976505,493.94168235830557 C953.4849842976505,493.94168235830557 954.3002190544422,495.5268596699011 954.3002190544422,495.5268596699011 C954.3002190544422,495.5268596699011 955.704235851083,497.0667489260071 955.704235851083,497.0667489260071 C955.704235851083,497.0667489260071 958.1046479194703,498.24430885920685 958.1046479194703,498.24430885920685 C958.1046479194703,498.24430885920685 959.9999999999999,497.74611122333357 959.9999999999999,497.74611122333357 C959.9999999999999,497.74611122333357 963.2678096721479,496.3420944266928 963.3130977276375,496.3873866286807 C963.358385783127,496.4326788306686 966.3928679468528,493.6246452373871 966.3928679468528,493.6246452373871 C966.3928679468528,493.6246452373871 971.5107250580473,486.378112683739 971.5560214065337,486.4234048857269 C971.60131775502,486.46869708771476 973.503532187534,485.8799150478657 973.503532187534,485.8799150478657 C973.503532187534,485.8799150478657 977.8967389459126,482.21135864230297 977.8967389459126,482.21135864230297 C977.8967389459126,482.21135864230297 983.1051804610829,482.4831035612336 983.1051804610829,482.4831035612336 C983.1051804610829,482.4831035612336 988.3136261227517,483.2983424645237 988.3136261227517,483.2530502625358 C988.3136261227517,483.20775806054786 988.6759512991597,484.43060604923704 988.6759512991597,484.38531799374755 C988.6759512991597,484.34002993825806 998.6852252441014,483.5247951814663 998.6852252441014,483.6153754389437 C998.6852252441014,483.70595569642114 1000.0892378942439,484.56648265520073 999.9986576367664,484.56648265520073 C999.908077379289,484.56648265520073 1006.2034985701816,487.1480635315396 1006.2034985701816,487.1933515870291 C1006.2034985701816,487.2386396425186 1007.6528075688102,488.2350390607635 1007.516935109345,488.64265643915934 C1007.3810626498798,489.0502738175552 1006.4299554336228,492.85470268258325 1006.4299554336228,492.85470268258325 C1006.4299554336228,492.85470268258325 1003.350181067909,498.0178561422641 1003.3048888659212,498.06314627100284 C1003.2595966639333,498.10843639974155 999.4551636524069,503.4527545208756 999.4098755969173,503.4527545208756 C999.3645875414278,503.4527545208756 995.8771916508199,508.43474331910335 995.8771916508199,508.43474331910335 C995.8771916508199,508.43474331910335 993.7485245013631,512.1485919266539 993.7485245013631,512.1485919266539 C993.7485245013631,512.1485919266539 993.2956149209793,516.3606381700779 993.2956149209793,516.3606381700779 C993.2956149209793,516.3606381700779 994.6090514601427,518.7157621829756 994.6090514601427,518.7157621829756 C994.6090514601427,518.7157621829756 996.5112617461584,519.8933221161753 996.5565539481463,519.8933221161753 C996.6018461501342,519.8933221161753 1000.9497648530233,520.165067035106 1000.9497648530233,520.165067035106 C1000.9497648530233,520.165067035106 1004.029539218737,518.5798897235104 1004.029539218737,518.5798897235104 C1004.029539218737,518.5798897235104 1007.9698405432304,515.5001112112982 1007.9698405432304,515.5001112112982 C1007.9698405432304,515.5001112112982 1011.8648538122342,511.6956864927686 1011.8648538122342,511.6503942907807 C1011.8648538122342,511.6051020887928 1015.2163772433769,506.17020371018134 1015.2163772433769,506.17020371018134 C1015.2163772433769,506.17020371018134 1017.7979539732173,500.96175804851254 1017.7979539732173,500.96175804851254 C1017.7979539732173,500.96175804851254 1020.1983618951062,497.2026213854724 1020.1983618951062,497.2026213854724 C1020.1983618951062,497.2026213854724 1024.6821530574607,492.40179310219946 1024.6821530574607,492.40179310219946 C1024.6821530574607,492.40179310219946 1032.426883246982,484.5211904532129 1032.47217544897,484.4759003244742 C1032.5174676509578,484.4306101957355 1035.733118622635,479.99210916211973 1035.7784066781246,479.99210916211973 C1035.8236947336143,479.99210916211973 1037.2277156767534,476.6179396299831 1037.2277156767534,476.5726515744936 C1037.2277156767534,476.5273635190041 1038.450567811941,472.4511876617963 1038.450567811941,472.4511876617963 C1038.450567811941,472.4511876617963 1039.311090624222,467.5144889923073 1039.311090624222,467.5144889923073 C1039.311090624222,467.5144889923073 1042.3455727879482,465.2046571813974 1042.5720296513891,465.1140748506708 C1042.79848651483,465.0234925199442 1047.5087262476288,461.8531358235039 1047.5087262476288,461.8531358235039 C1047.5087262476288,461.8531358235039 1054.5514459655803,461.8304897225099 1054.6420303695563,461.8304897225099 C1054.7326147735323,461.8304897225099 1064.2889749915919,460.2453124109144 1064.2889749915919,460.2453124109144 C1064.2889749915919,460.2453124109144 1065.058921692894,462.1475268434284 1065.058921692894,462.1475268434284 C1065.058921692894,462.1475268434284 1065.3105135762703,464.0854280358151 1065.3105135762703,464.0854280358151 C1065.3105135762703,464.0854280358151 1065.2530523203875,485.3473921933206 1065.2530523203875,485.3473921933206 C1065.2530523203875,485.3473921933206 1065.0231967747438,488.76654736059334 1064.3910808715839,490.4904902582004 C1063.758964968424,492.21443315580746 1062.4947436842165,497.96090597379344 1062.3223493944556,497.96090597379344 C1062.1499551046948,497.96090597379344 1059.2192521787629,504.91414408116054 1059.2192521787629,504.91414408116054 C1059.2192521787629,504.91414408116054 1055.3116447701493,511.3214634302479 1055.3116447701493,511.3214634302479 C1055.3116447701493,511.3214634302479 1050.829393236371,517.2978023159898 1050.829393236371,517.2978023159898 C1050.829393236371,517.2978023159898 1044.565737549103,523.6189245201969 1044.565737549103,523.6189245201969 C1044.565737549103,523.6189245201969 1039.853625208625,527.3541323779933 1039.853625208625,527.3541323779933 C1039.853625208625,527.3541323779933 1034.8541908055645,530.514696110625 1034.8541908055645,530.514696110625 C1034.8541908055645,530.514696110625 1028.7054628911183,534.3648370022995 1028.7054628911183,534.3648370022995 C1028.7054628911183,534.3648370022995 1028.762924147001,538.4448334396174 1028.762924147001,538.4448334396174 C1028.762924147001,538.4448334396174 1035.3139071579078,540.3508771929824 1035.3139071579078,540.3508771929824 C1035.3139071579078,540.3508771929824 1041.6924958790537,542.812157200574 1041.6924958790537,542.812157200574 C1041.6924958790537,542.812157200574 1048.4158731797213,545.8003213823887 1048.4158731797213,545.8003213823887 C1048.4158731797213,545.8003213823887 1053.6451683894813,548.9034185980813 1053.6451683894813,548.9034185980813 C1053.6451683894813,548.9034185980813 1060.4547428350293,553.7017280834397 1060.4547428350293,553.7017280834397 C1060.4547428350293,553.7017280834397 1065.9138935904327,558.1839796172179 1065.9138935904327,558.1839796172179 C1065.9138935904327,558.1839796172179 1071.3730496068924,563.9879189521429 1071.3730496068924,563.9879189521429 C1071.3730496068924,563.9879189521429 1076.0276954304315,570.4239741902279 1076.0276954304315,570.4239741902279 C1076.0276954304315,570.4239741902279 1079.762903288228,577.3772122975951 1079.762903288228,577.3772122975951 C1079.762903288228,577.3772122975951 1083.153322566503,585.3073496265874 1083.153322566503,585.3073496265874 C1083.153322566503,585.3073496265874 1085.2220540436315,592.6628375693588 1085.2220540436315,592.6628375693588 C1085.2220540436315,592.6628375693588 1086.4288140719564,598.2369213586403 1086.4288140719564,598.2369213586403 C1086.4288140719564,598.2369213586403 1087.1183912309991,603.9259329207435 1087.1183912309991,603.9259329207435 C1087.1183912309991,603.9259329207435 1087.1183912309991,623.6650790983441 1087.1183912309991,623.6650790983441 C1087.1183912309991,623.6650790983441 1086.198958526313,631.6526776832193 1086.198958526313,631.6526776832193 C1086.198958526313,631.6526776832193 1084.3600825948279,640.6171807507759 1084.3600825948279,640.6171807507759 C1084.3600825948279,640.6171807507759 1082.1189568279387,647.7428131479037 1082.1189568279387,647.7428131479037 C1082.1189568279387,647.7428131479037 1078.5561432599031,656.9946382780428 1078.5561432599031,656.9946382780428 C1078.5561432599031,656.9946382780428 1073.2693867942603,666.13153563536 1073.2693867942603,666.13153563536 C1073.2693867942603,666.13153563536 1067.1206536187576,673.6594231289482 1067.1781201356966,673.6594231289482 C1067.2355866526357,673.6594231289482 1059.7076991590473,680.8999832988978 1059.7651656759863,680.8999832988978 C1059.8226321929253,680.8999832988978 1051.3178507387681,686.6177254889425 1051.3178507387681,686.6177254889425 C1051.3178507387681,686.6177254889425 1041.37644318853,691.8470180681744 1041.37644318853,691.8470180681744 C1041.37644318853,691.8470180681744 1031.3775743824092,695.7546228462597 1031.3775743824092,695.7546228462597 C1031.3775743824092,695.7546228462597 1019.8846234853809,699.0875808686521 1019.827156968442,699.0875808686521 C1019.769690451503,699.0875808686521 1005.3460366285428,701.0413793119027 1005.3460366285428,701.0413793119027 C1005.3460366285428,701.0413793119027 993.7956165840476,702.0182837945841 993.7956165840476,702.0182837945841 C993.7956165840476,702.0182837945841 853.8054112218849,702.0928724622456 853.8054112218849,702.0928724622456 C853.8054112218849,702.0928724622456 853.7425428213049,641.5524502508049 853.7425428213049,641.5524502508049 C853.7425428213049,641.5524502508049 862.6803849586718,641.4513327079304 862.7082664479891,641.4513327079304 C862.7361479373064,641.4513327079304 872.8015187408121,640.5591097337812 872.8015187408121,640.5591097337812 C872.8015187408121,640.5591097337812 893.4062571532138,640.5869924994313 893.4062571532138,640.5869924994313 C893.4062571532138,640.5869924994313 898.0346533018679,641.674387175135 898.0346533018679,641.674387175135 C898.0346533018679,641.674387175135 904.057146890381,644.7135167350416 904.057146890381,644.7135167350416 C904.057146890381,644.7135167350416 915.098385135988,648.6169839507819 915.098385135988,648.6169839507819 C915.098385135988,648.6169839507819 927.3106586962526,652.910799674962 927.2548982702834,652.910799674962 C927.1991378443142,652.910799674962 932.9567515408145,654.7510047728971 932.9567515408145,654.7510047728971 C932.9567515408145,654.7510047728971 941.07038873645,658.8775277321746 941.07038873645,658.8775277321746 C941.07038873645,658.8775277321746 950.327183586424,660.8013798507274 950.327183586424,660.8013798507274 C950.327183586424,660.8013798507274 961.1174871518419,660.7456168720927 961.1174871518419,660.7456168720927 C961.1174871518419,660.7456168720927 966.7914551040577,660.745614319427 966.8472180826924,660.7177341064424 C966.9029810613271,660.6898538934579 978.0557478168693,658.738119009255 978.0557478168693,658.738119009255 C978.0557478168693,658.738119009255 995.0079511410543,655.8383994486007 995.0079511410543,655.8383994486007 C995.0079511410543,655.8383994486007 1000.7795074967124,654.7091831770873 1000.7795074967124,654.7091831770873 C1000.7795074967124,654.7091831770873 1003.1215883366897,653.7890799899534 1003.2331168466247,653.7611972243033 C1003.3446453565598,653.7333144586531 1004.9339144979729,652.7574482928844 1004.9339144979729,652.7574482928844 C1004.9339144979729,652.7574482928844 1006.0491893866613,651.8094623401004 1006.0491893866613,651.8094623401004 C1006.0491893866613,651.8094623401004 1006.9414123608105,650.3317217086222 1006.9414123608105,650.3317217086222 C1006.9414123608105,650.3317217086222 1014.3719409430091,650.7499504300467 1014.3719409430091,650.7499504300467 C1014.3719409430091,650.7499504300467 1016.9370788028565,649.9971361788172 1016.9370788028565,649.8856102215476 C1016.9370788028565,649.774084264278 1019.1676311328987,648.7703340565265 1019.1676311328987,648.7703340565265 C1019.1676311328987,648.7703340565265 1021.8442949500155,647.794466614425 1021.8442949500155,647.794466614425 C1021.8442949500155,647.794466614425 1023.907555791488,646.8464819379737 1023.907555791488,646.8464819379737 C1023.907555791488,646.8464819379737 1032.0490757527734,642.7617818508386 1032.0490757527734,642.7617818508386 C1032.0490757527734,642.7617818508386 1035.9525429685136,640.6985197330334 1035.9525429685136,640.6985197330334 C1035.9525429685136,640.6985197330334 1041.6962191111872,637.7430371937444 1041.6962191111872,637.7430371937444 C1041.6962191111872,637.7430371937444 1047.7744731256696,633.7141013615768 1047.9138844012548,633.6862185959267 C1048.05329567684,633.6583358302765 1051.0366622581118,631.7623664773739 1051.0366622581118,631.7623664773739 C1051.0366622581118,631.7623664773739 1052.932629058349,630.7865003116052 1052.932629058349,630.7865003116052 C1052.932629058349,630.7865003116052 1054.0200237340528,629.810631593171 1054.0200237340528,629.810631593171 C1054.0200237340528,629.810631593171 1055.0795381967719,628.1934809624405 1055.0795381967719,628.1934809624405 C1055.0795381967719,628.1934809624405 1055.1353037280721,625.1543526788666 1055.1353037280721,625.1543526788666 C1055.1353037280721,625.1543526788666 1054.075789265353,623.871783748943 1054.075789265353,623.871783748943 C1054.075789265353,623.871783748943 1052.3749941666704,622.8959175831743 1052.3749941666704,622.8959175831743 C1052.3749941666704,622.8959175831743 1045.7112148368626,623.0353263060939 1045.6833320712126,623.0074448167766 C1045.6554493055626,622.9795633274592 1043.3133684655852,623.8160207703082 1043.3133684655852,623.8160207703082 C1043.3133684655852,623.8160207703082 1039.409901249845,624.736123957442 1039.2426097612752,624.7640054467595 C1039.0753182727053,624.7918869360769 1036.008308499814,625.9071643774308 1035.9804257341639,625.9071643774308 C1035.9525429685139,625.9071643774308 1033.1085876628272,626.8551490538821 1033.1085876628272,626.8551490538821 C1033.1085876628272,626.8551490538821 1031.240501075575,627.7473694753658 1031.1289725656397,627.8867794746183 C1031.0174440557046,628.0261894738708 1030.0136951242857,628.9184111716872 1030.0136951242857,628.9184111716872 C1030.0136951242857,628.9184111716872 1029.1493574684523,629.6991056359016 1029.121474702802,629.6712228702514 C1029.0935919371518,629.6433401046013 1026.1087893337349,630.8036415299266 1026.1087893337349,630.8036415299266 C1026.1087893337349,630.8036415299266 1023.2299811706981,631.7668930409886 1023.2190358026887,631.7668930409886 C1023.2080904346793,631.7668930409886 1020.8995968778845,632.8431011263627 1020.9605800882247,632.7617904894192 C1021.0215632985648,632.6804798524757 1022.0481136957808,630.891638395478 1022.0481136957808,630.8713109688746 C1022.0481136957808,630.8509835422711 1023.0238450612233,629.4077139207109 1023.0238450612233,629.4077139207109 C1023.0238450612233,629.4077139207109 1025.0058012583381,625.8300324025101 1025.0159645063748,625.7995407973401 C1025.0261277544114,625.7690491921701 1026.0425139730607,623.6854563273032 1026.0425139730607,623.6854563273032 C1026.0425139730607,623.6854563273032 1026.9572621281632,621.78989518274 1026.9572621281632,621.78989518274 C1026.9572621281632,621.78989518274 1027.9533218507388,619.9807253686089 1027.9736492773422,619.9705621205721 C1027.9939767039457,619.9603988725354 1028.0041408825123,616.6114034625807 1028.0041408825123,616.601239749279 C1028.0041408825123,616.5910760359773 1026.7438208919725,615.3815755424758 1026.7438208919725,615.3815755424758 C1026.7438208919725,615.3815755424758 1025.3920270164524,614.619285413224 1025.3920270164524,614.619285413224 C1025.3920270164524,614.619285413224 1023.9081016111555,613.9687979913507 1023.9081016111555,613.9687979913507 C1023.9081016111555,613.9687979913507 1022.9425353548097,613.9179784943123 1022.9222069976763,613.9179784943123 C1022.9018786405429,613.9179784943123 1021.5500847650229,613.9179784943123 1021.5500847650229,613.9179784943123 C1021.5500847650229,613.9179784943123 1019.8425544102337,613.9992895965207 1019.8425544102337,613.9992895965207 C1019.8425544102337,613.9992895965207 1019.0904279942835,614.8937098597547 1019.0802642809817,614.8937098597547 C1019.07010056768,614.8937098597547 1017.0779820530585,615.8796054037638 1017.0779820530585,615.8796054037638 C1017.0779820530585,615.8796054037638 1015.2078308896471,616.6927145647892 1015.2078308896471,616.6927145647892 C1015.2078308896471,616.6927145647892 1014.0593131412209,617.7904123509119 1014.0288215360508,617.8005765294786 C1013.9983299308808,617.8107407080453 1012.9209600366264,618.7559804683176 1012.9209600366264,618.7559804683176 C1012.9209600366264,618.7559804683176 1011.0508074774201,620.8141633520328 1011.0406442293834,620.8141633520328 C1011.0304809813466,620.8141633520328 1009.9327831952239,621.9118606728905 1009.9226190166572,621.9220248514572 C1009.9124548380905,621.9321890300239 1009.0688540718951,622.6741517326723 1009.0688540718951,622.7046433378424 C1009.0688540718951,622.7351349430126 1008.2506632868514,624.37151744363 1008.2404991082847,624.37151744363 C1008.230334929718,624.37151744363 1008.0168936935274,625.2354465669588 1008.0168936935274,625.2354465669588 C1008.0168936935274,625.2354465669588 1007.9965653363939,625.9672450910406 1007.9762379097906,625.9672450910406 C1007.9559104831873,625.9672450910406 1007.4273899472593,625.326921382469 1007.3562425583524,625.2659381721288 C1007.2850951694455,625.2049549617886 1006.9293600859713,625.0220053307683 1006.8277210918944,625.0220053307683 C1006.7260820978175,625.0220053307683 1005.9637919685657,624.9711853684648 1005.9333003633956,624.9711853684648 C1005.9028087582254,624.9711853684648 1005.2218297311822,624.7272525271043 1005.191338126012,624.6662693167641 C1005.1608465208419,624.6052861064239 1004.7136361565924,624.1987319911761 1004.6831445514224,624.1987319911761 C1004.6526529462524,624.1987319911761 1004.0834766265875,623.9547991498156 1004.0529850214175,623.9547991498156 C1004.0224934162475,623.9547991498156 1002.9552872352948,623.8938159394754 1002.8943040249546,623.8938159394754 C1002.8333208146145,623.8938159394754 1002.1218497171361,623.8734875823421 1002.04053884756,623.8734875823421 C1001.9592279779839,623.8734875823421 1002.9756146618982,621.75940357757 1002.9756146618982,621.7492393990033 C1002.9756146618982,621.7390752204366 1003.6159393009998,620.8446544919377 1003.6667583327733,620.7328522498241 C1003.7175773645467,620.6210500077104 1004.1241324103244,619.746957636345 1004.1241324103244,619.7367934577783 C1004.1241324103244,619.7266292792116 1004.9474057499165,618.4307365247485 1004.9474057499165,618.37991702771 C1004.9474057499165,618.3290975306716 1004.9677331765198,616.9163199795464 1004.9677331765198,616.9163199795464 C1004.9677331765198,616.9163199795464 1004.4595400671952,615.4222313262126 1004.4595400671952,615.4222313262126 C1004.4595400671952,615.4222313262126 1003.2906939616357,614.6599411969606 1003.280530713599,614.6599411969606 C1003.2703674655622,614.6599411969606 1001.8372620225687,613.9078147810104 1001.8372620225687,613.9078147810104 C1001.8372620225687,613.9078147810104 999.8857992916838,613.8366678573686 999.814651902777,613.8366678573686 C999.7435045138701,613.8366678573686 997.8631891718921,613.9281426728788 997.8631891718921,613.9281426728788 C997.8631891718921,613.9281426728788 996.9992600485633,614.5684663814504 996.9890963352616,614.5786300947522 C996.9789326219599,614.5887938080539 995.3527133693792,615.2697733003622 995.3527133693792,615.2697733003622 C995.3527133693792,615.2697733003622 994.9461587888665,615.8897695823304 994.9461587888665,615.8897695823304 C994.9461587888665,615.8897695823304 993.279285148344,616.4538638127117 993.2691209697773,616.4538638127117 C993.2589567912106,616.4538638127117 992.7101078981492,616.7689435777141 992.6796162929792,616.7892714695826 C992.6491246878091,616.809599361451 991.2465099194555,617.6023810958729 991.2363466714189,617.6023810958729 C991.2261834233823,617.6023810958729 990.2504520579398,618.3443428679916 990.2402878793731,618.3545070465582 C990.2301237008064,618.3646712251248 989.2137374821572,619.0659781440365 989.2137374821572,619.0659781440365 C989.2137374821572,619.0659781440365 988.166858727808,620.011217904309 988.166858727808,620.011217904309 C988.166858727808,620.011217904309 987.4858801660296,620.8853102756744 987.4757159874629,620.8954744542411 C987.4655518088962,620.9056386328078 986.9065387372682,621.6069455517196 986.9065387372682,621.6069455517196 C986.9065387372682,621.6069455517196 985.7072024223335,620.7836722121275 985.7072024223335,620.7836722121275 C985.7072024223335,620.7836722121275 984.7111436302876,620.1331843249893 984.6908157384192,620.1026927198192 C984.6704878465509,620.072201114649 983.4914791908521,619.5843354319279 983.4813152449179,619.5843354319279 C983.4711512989837,619.5843354319279 982.1905038818405,618.822045302676 982.1905038818405,618.822045302676 C982.1905038818405,618.822045302676 979.9392069559058,617.7141833379866 979.9392069559058,617.7141833379866 C979.9392069559058,617.7141833379866 978.4857731557788,616.7994351828843 978.4756099077421,616.7994351828843 C978.4654466597053,616.7994351828843 976.6562777761042,615.9456702381221 976.6562777761042,615.9456702381221 C976.6562777761042,615.9456702381221 974.1356387255546,614.842890362716 974.1254745469879,614.8327266494143 C974.1153103684212,614.8225629361126 972.6618774988242,613.7350288632916 972.6618774988242,613.7350288632916 C972.6618774988242,613.7350288632916 971.0966414565837,612.667822682339 971.0966414565837,612.667822682339 C971.0966414565837,612.667822682339 968.8961651908497,611.7988124002568 968.8758368337163,611.7784845083885 C968.8555084765829,611.7581566165202 967.1174869818886,610.7925889643794 967.1174869818886,610.7925889643794 C967.1174869818886,610.7925889643794 965.1152052192302,609.8880049878438 965.1152052192302,609.8880049878438 C965.1152052192302,609.8880049878438 962.9350554495701,608.8766999279478 962.9350554495701,608.8766999279478 C962.9350554495701,608.8766999279478 962.0609630782045,607.7993300336934 962.0609630782045,607.7993300336934 C962.0609630782045,607.7993300336934 961.2071981334423,606.1019643227361 961.1970339548756,606.0918001441694 C961.1868697763089,606.0816359656027 960.7091682721543,605.1973794156704 960.7091682721543,605.1567240971987 C960.7091682721543,605.1160687787269 960.5263157894738,604.4350892864186 960.5263157894738,604.4350892864186 C960.5263157894738,604.4350892864186 961.0547401075918,603.9167319985273 961.1767065282721,603.8455850748854 C961.2986729489525,603.7744381512435 961.8373576634472,603.6524717305633 961.9288324789574,603.5914885202232 C962.0203072944676,603.530505309883 963.0062028384767,601.812811241792 963.0062028384767,601.812811241792 C963.0062028384767,601.812811241792 964.8001259194929,601.5587142218646 964.8509449512663,601.5383867952612 C964.9017639830398,601.5180593686578 966.4974916304506,601.3351097376373 966.578802267394,601.2842902405988 C966.6601129043376,601.2334707435604 968.8351819805096,600.7964245578777 968.8351819805096,600.7964245578777 C968.8351819805096,600.7964245578777 972.2654857010832,600.318723518988 972.2858140582166,600.2780677352513 C972.30614241535,600.2374119515146 972.8956461616181,599.8410206190387 972.9261377667882,599.8308569057369 C972.9566293719583,599.8206931924352 974.2271154021247,599.5564324592062 974.2779335033682,599.5564324592062 C974.3287516046117,599.5564324592062 975.8330053670421,598.7738149033509 975.8736602202489,598.7738149033509 C975.9143150734557,598.7738149033509 978.2070343903747,598.6644581092778 978.2070343903747,598.6644581092778 C978.2070343903747,598.6644581092778 979.0073752058181,599.2932973214118 979.0073752058181,599.2932973214118 C979.0073752058181,599.2932973214118 980.3126935458737,599.4266880388539 980.3508044317409,599.4457434817875 C980.3889153176082,599.4647989247212 981.9991242338107,599.5410215687579 982.0753477501496,599.5410215687579 C982.1515712664885,599.5410215687579 985.4672689304683,599.2742418784783 985.4672689304683,599.2742418784783 C985.4672689304683,599.2742418784783 989.3879867209907,598.0070352965921 989.4546812074095,598.0070352965921 C989.5213756938283,598.0070352965921 994.0756972114449,595.8156257755896 994.0471136108933,595.8156257755896 C994.0185300103418,595.8156257755896 996.9959872380585,593.7576069720293 997.0055153956765,593.7576069720293 C997.0150435532945,593.7576069720293 998.0345258878348,592.6714301510704 998.1012203742534,592.5761511917977 C998.1679148606721,592.4808722325251 999.0444791924546,590.7658561994322 999.0444791924546,590.7658561994322 C999.0444791924546,590.7658561994322 999.9829734956955,588.0361223467592 999.9829734956955,588.0361223467592 C999.9829734956955,588.0361223467592 1000.1163642131377,586.1114933883385 1000.1163642131377,586.1114933883385 C1000.1163642131377,586.1114933883385 999.0397146774944,584.1773362723 999.0301873921787,584.1773362723 C999.020660106863,584.1773362723 997.5819510493654,583.6914150629235 997.5819510493654,583.6914150629235 C997.5819510493654,583.6914150629235 994.7807581953134,582.9101305627161 994.7045355512768,582.9006024050981 C994.6283129072401,582.8910742474801 988.1874746255235,582.0669139102943 988.1874746255235,582.0669139102943 C988.1874746255235,582.0669139102943 984.6049972712641,581.8954123069849 984.5668855130946,581.8954123069849 C984.528773754925,581.8954123069849 974.2958438851679,581.3332680174208 974.0147723946125,581.3332680174208 C973.7337009040571,581.3332680174208 971.8424187526948,581.9716353871729 971.6709171493854,581.9811631086396 C971.4994155460761,581.9906908301064 969.3508809897497,583.1435625736351 969.2127275019521,583.1912020532715 C969.0745740141546,583.2388415329078 965.1967316244593,583.8676811811929 965.1300367018895,583.8867366241266 C965.0633417793197,583.9057920670602 961.4046409087214,584.7156610401215 961.4141686301881,584.7156610401215 C961.4236963516548,584.7156610401215 952.2073800353802,585.1744330674994 952.1916958239917,585.1744330674994 C952.1760116126032,585.1744330674994 948.788014447788,584.9234698890626 948.7409589415823,584.9234698890626 C948.6939034353767,584.9234698890626 940.0200053641425,586.1704408035118 940.0200053641425,586.1704408035118 C940.0200053641425,586.1704408035118 936.0830284902783,586.9468566559049 935.9418619716614,587.0252827389176 C935.8006954530446,587.1037088219302 930.4206820981943,587.9036524274259 930.4206820981943,587.9036524274259 C930.4206820981943,587.9036524274259 919.6841838596068,589.8799836880623 919.5900728471955,589.8799836880623 C919.4959618347842,589.8799836880623 913.5591252291708,591.9190561023129 913.5591252291708,591.9190561023129 C913.5591252291708,591.9190561023129 908.8065205384224,593.3777760766773 908.7908348910139,593.3777760766773 C908.7751492436054,593.3777760766773 905.8577078588564,594.6953295324249 905.8577078588564,594.7110151798335 C905.8577078588564,594.726700827242 902.234433881023,596.8598835358938 902.234433881023,596.8598835358938 C902.234433881023,596.8598835358938 899.5052145210966,596.9853651251121 899.5052145210966,596.9853651251121 C899.5052145210966,596.9853651251121 893.1605632890308,598.1303829214557 893.1135077828253,598.1303829214557 C893.0664522766198,598.1303829214557 888.4236428096712,598.632307842309 888.3295317972598,598.7264188547204 C888.2354207848485,598.8205298671317 882.6515011937873,599.3538260828022 882.6358155463788,599.3381404353936 C882.6201298989703,599.322454787985 878.3223939048595,599.3381389993734 878.3223939048595,599.3695102941906 C878.3223939048595,599.4008815890078 870.7621423351519,599.9341763686582 870.7621423351519,599.9341763686582 C870.7621423351519,599.9341763686582 865.7899428887438,599.9341763686582 865.7272031711497,599.9341763686582 C865.6644634535555,599.9341763686582 860.9118566087769,599.5734194024418 860.7706900901601,599.5420481076246 C860.6295235715432,599.5106768128074 856.3945276540317,598.9616963857485 856.3161019300239,598.9616963857485 C856.2376762060162,598.9616963857485 853.8587167497656,598.8406220817658 853.8587167497656,598.8406220817658 C853.8587167497656,598.8406220817658 853.3103870090805,403.2154946021303 853.3103870090805,403.2154946021303 Z" fill="#112250" stroke="#112250" stroke-width="2"/>
	</g>
</g></g></svg>