<svg xmlns="http://www.w3.org/2000/svg" viewBox="0 0 1920 1080" width="1920" height="1080"><defs></defs><g>
<rect fill="#ffffff" fill-opacity="0" x="0" y="0" width="1920" height="1080"/>
<g>
	<g>
		<g>
			<path d="M737.9949818661339,797.3508771929825 C736.4669838955529,796.3230756793106 735.4314118435509,795.2693647418106 734.3443566372521,794.2718061480606 C728.3252488186486,788.7480939898575 726.6375523617394,781.7915815386856 729.54177866484,774.3916791949356 C732.4195118954308,767.0592817339981 737.217367272628,763.9951948199356 745.8926220944054,763.9948896441543 C881.3835240414269,763.9898847613418 1016.8743992855675,763.9886640582168 1152.3653050472863,763.985276607045 C1160.1692601254113,763.9850935015762 1160.0751744320519,763.9784711871231 1160.19776354338,755.9966901812637 C1160.4047337582238,742.5203107867325 1159.5275670101769,729.0562299761856 1158.9522191097863,715.6259626422012 C1157.9538060238488,692.3203901324356 1156.2910557797081,669.0188764605606 1152.1382847836144,645.9558271441543 C1148.4271031429894,625.345139888295 1136.3899327328331,610.7027753863418 1120.4264012386925,598.3752607379043 C1104.4022007992394,586.000901607045 1086.5672093441613,576.7828535113418 1068.5418797543175,567.8537153277481 C1067.9737340023644,567.5722822222793 1067.2866612484581,567.5309003863418 1066.2106724789269,567.2697919879043 C1059.5486851742394,580.1383832964981 1053.0747471859581,593.0468610797012 1046.2416783383019,605.7624067339981 C1030.0370579769738,635.9173139605606 1014.2472935726769,666.2965253863418 997.2749424984581,696.0381940875137 C990.767343621505,707.441819575795 984.717050652755,719.1069501910293 978.4911900570519,730.6705488238418 C975.18506823088,736.8112348589981 971.0405980160363,741.2444013629043 963.28711901213,741.8439497027481 C954.2922764828331,742.5395063433731 948.7724400570519,738.4224103961075 944.7987309506066,731.085862544545 C930.5641270687706,704.8050092730606 916.5035496761925,678.4280561480606 902.0528813412316,652.2665571246231 C887.3476201107628,625.6441816363418 873.3418217709191,598.66276684142 859.6814366390831,571.498460200795 C858.139886956466,568.4329694781387 856.815424065841,567.3164838824356 853.2796116879113,568.8932661089981 C834.2437993099816,577.3822187457168 816.4605046322472,587.88688793517 800.1442204525597,600.8759321246231 C792.30713854338,607.1148237261856 785.0459767391808,613.8320783648575 779.8495503475792,622.5633100543106 C774.3120823910363,631.867600825795 771.924799065841,642.1811689410293 769.8898488094933,652.6089948687637 C764.7423497250206,678.9866498980606 767.4947186520226,705.6773847613418 766.9478550961144,732.2331098589981 C766.803907494796,739.2233442339981 764.3992711117394,744.8951581988418 758.276018243087,747.8967145953262 C751.8867627194054,751.0285810504043 744.9925366451866,751.05729809142 738.9209157040245,746.5227521929825 C734.1878491451866,742.9879011187637 732.3042279293663,737.7512983355606 732.2528000881798,732.10466137267 C732.0858498623497,713.7741254839981 731.5261651089318,695.4102338824356 732.3750382473595,677.1175092730606 C733.281805138839,657.5771955523575 735.7556000759728,638.1527875933731 742.8222867062218,619.6112226519668 C746.9514905026085,608.77702465392 752.5431119015343,598.9385236773575 760.4027348568566,590.3792280230606 C782.0785771420128,566.7737287554825 809.0297108700402,550.8477338824356 837.6480961849816,537.4075330767715 C845.4502965023644,533.743348506459 853.2541142513878,529.9417280230606 861.7157078793175,527.9055952105606 C870.249765496505,525.8520368609512 877.1687565853722,528.8530591998184 881.2401524593956,536.6521619830215 C885.864740472091,545.5110334429825 890.2519169857628,554.4942487750137 894.7120915463097,563.4384931597793 C909.0392094662316,592.1693891558731 924.6225377133019,620.2358564410293 939.7262669613488,648.5558942828262 C940.4154454281456,649.8481611285293 940.8682652523644,651.3602155718887 942.6010991146691,652.1874555621231 C944.8147221615441,651.0334028277481 944.125742059005,648.8244184527481 944.1374302914269,647.0280622515762 C944.2090550472863,636.029221919545 944.1551915218956,625.029710200795 944.1841832211144,614.0305341754043 C944.2125035336144,603.2868513140762 951.1084691097863,596.0404829058731 961.2832737972863,595.9998640093887 C971.9022923519738,595.9574750933731 978.816660027755,603.000901607045 978.8585911800988,614.0072797808731 C978.9030552914269,625.6729902300918 978.8505040218956,637.33903637267 978.8931065609581,649.0047468218887 C978.8989659359581,650.6076215777481 978.4345189144738,652.3098310504043 979.6412449886925,654.131760982045 C983.0614720394738,651.1449750933731 984.32813463713,646.8913435015762 986.3012486508019,643.2751325640762 C997.7739964535363,622.2481855425918 1008.8702794125206,601.0161298785293 1020.1580296566613,579.8877424273575 C1027.6876011898644,565.7939313922012 1034.9130040218956,551.5561079058731 1041.7555638363488,537.1106580767715 C1045.9309483578331,528.2959302935684 1056.0331517269738,525.0434888873184 1065.6000767758019,528.8067335162247 C1088.8739415218956,537.9617475543106 1111.1590367367394,549.1113447222793 1131.7575474789269,563.3023542437637 C1150.9085484554894,576.4961713824356 1168.1136570980675,591.745530513295 1178.1366673519738,613.4656843218887 C1183.6146641781456,625.3367475543106 1185.9776097347863,638.06511059142 1187.8340550472863,650.8799909625137 C1190.5911961605675,669.91179027892 1192.2435093929894,689.0284284625137 1193.1380101254113,708.2614912066543 C1193.5396214535363,716.8973249468887 1193.2741490414269,725.5456403765762 1193.9332066586144,734.1470808062637 C1195.0151768734581,748.2685407672012 1194.4621373226769,762.41471996642 1195.01416979338,776.5291914019668 C1195.3511143734581,785.1446394000137 1192.7180882504113,791.7579511675918 1185.6722508480675,797.057053950795 C1036.5054112484581,797.3508771929825 887.4845219662316,797.3508771929825 737.9949818661339,797.3508771929825 C737.9949818661339,797.3508771929825 737.9949818661339,797.3508771929825 737.9949818661339,797.3508771929825 Z" fill="#000000"/>
		</g>
		<g>
			<path d="M984.0576573422081,285.35087719298247 C986.0881138851769,287.98579922057036 989.0667210629113,287.2987402949417 991.2678929379113,287.74124017096403 C1012.1285801937706,291.93483534193876 1030.3253880550988,300.9961961779678 1046.1226597836144,315.39190807677153 C1063.2876378109581,331.03396358824614 1073.5492650082238,350.52440777159575 1079.7533970883019,372.4659513506973 C1080.7090245297081,375.84565105772856 1081.6373082211144,377.7223142657364 1085.729745965255,378.2307218585098 C1093.0178929379113,379.13610210753325 1098.2011509945519,385.4085477862442 1098.8407078793175,392.5502714190567 C1099.6045323422081,401.08023968077543 1095.7140904476769,408.1104978594864 1088.3765355160363,411.04569378233793 C1086.1376133968956,411.9413160357559 1084.9835301449425,412.96940746641997 1084.8082982113488,415.64703502989653 C1082.7976780941613,446.37127819395903 1072.371835809005,474.20001354552153 1055.2571812679894,499.5990003619278 C1046.603769402755,512.44108715392 1036.622812371505,524.2619489703262 1025.2239476254113,534.7314924273575 C1008.19483385588,550.3722700152481 989.3690281918175,563.6430524859512 969.5082188656456,575.4585126910293 C964.0933629086144,578.6798872027481 958.9690800717003,582.324143794545 952.0627995541222,581.7920087847793 C945.4894352963097,581.2855085406387 939.03809557463,577.4807294879043 937.0931492855675,571.2080854449356 C935.0954991390831,564.7655195269668 935.2851811459191,558.2321638140762 940.5266514828331,553.0734418902481 C946.1591435482628,547.5298322711075 953.3768254330284,544.2369245562637 959.9665776302941,540.0637220416153 C988.3625889828331,522.0808118853653 1013.3803196957238,500.56373730040434 1031.58497057463,471.88177624083403 C1033.2672825863488,469.2312330279434 1033.7499486019738,467.7298597369278 1033.8982335140831,464.49638500548247 C1032.5838719418175,463.2561353716934 1031.1936741879113,463.9155286822403 1029.7323094418175,464.25470104552153 C1010.6886387875206,468.6741804156387 993.5207310726769,464.6633314166153 979.4871922543175,451.11222973204497 C970.3461705258019,442.2854322466934 965.0450535824425,430.9379743609512 964.1931859066613,417.9293531451309 C964.0296422054894,415.4322370562637 964.5326329281456,412.79025402403715 960.6366063168175,412.7002271685684 C956.8288975765831,412.61224499083403 957.0931340267784,415.09295788145903 956.779550652755,417.6747602496231 C954.8697453549034,433.3983167681778 948.1325322201378,446.47270336485747 935.1478978207238,455.92848339415434 C922.8075963070519,464.91505565977934 909.0583897640831,467.6264966998184 894.1114445736534,464.9105237994278 C891.7361241390831,464.4789136920059 889.3802281429894,463.3578199420059 886.5989171078331,464.25444164610747 C888.9779149105675,470.3048872027481 893.2256718685753,474.9890913043106 897.3299199154503,479.68112316466215 C907.8805638363488,491.74276867247465 920.3958378842003,501.3485120806778 935.2073002865441,507.52618542052153 C947.0045567562706,512.4466718707168 948.0052128842003,530.6624921832168 939.0863438656456,537.1726850543106 C933.100824456466,541.5417036089981 926.646967034591,541.9865583453262 920.2316227963097,539.0709394488418 C906.4186650326378,532.7932905230606 893.679926018966,524.9682783160293 882.2832737972863,514.629334834584 C857.1096440365441,491.7919935259903 843.1415501644738,463.25468578673247 837.4479313900597,430.2746442828262 C836.6692601254113,425.7642377886856 835.6681309750206,421.1255201373184 836.1582432797081,416.42411938048247 C836.4323216488488,413.79493847227934 835.4917393734581,412.4053052935684 832.7517491390831,411.28366222716215 C825.2028142025597,408.19340648985747 820.6540928890831,400.8480314288223 821.522714715255,394.2734464678848 C822.796526055587,384.6320127520645 826.8644429257042,379.939019588002 836.2396641781456,378.0423139605606 C839.3591862728722,377.4112104449356 839.6044560482628,375.1441968951309 840.2086430599816,373.0159467730606 C843.5824376156456,361.1314786944473 848.3980656674034,349.9783491168106 854.8592015316613,339.3541692767227 C864.4027348568566,323.66158047057036 876.9319706967003,311.2800191912735 892.5359135677941,301.7873434100235 C907.4190159847863,292.7332033190811 923.6976872494347,287.95520320273283 941.17090807463,285.49235215521696 C955.5472050717003,285.35087719298247 969.5680943539269,285.35087719298247 984.0576573422081,285.35087719298247M897.3656407406456,341.675893214711 C890.625970940841,348.64238109923247 884.3259678890831,355.89218273497465 881.2501011898644,365.3230070147598 C882.9657231381066,366.12677898741606 883.8025151302941,365.5476850543106 884.7325078060753,365.1756376299942 C901.9606724789269,358.2833112750137 925.8756505062706,361.04481640196684 939.7262517025597,375.3319181475723 C941.607660393966,377.27263012266997 943.606439690841,378.0970701251114 946.3275242855675,378.05331554747465 C954.9841710140831,377.91413250304106 963.6504918148644,377.8220075640762 972.3004551937706,378.10167827940825 C975.6930028011925,378.21136608458403 978.1141148617394,377.4474119219864 980.6886998226769,375.0888761553848 C991.9038792660363,364.8148435626114 1005.1924229672081,360.75868358946684 1020.4228001644738,361.79064312315825 C1026.9209691097863,362.2309354815567 1032.8386632015831,364.6546644244278 1039.6641942074425,365.9637311968887 C1035.3489781429894,353.15846386290434 1026.6224766781456,344.34227886534575 1017.0167027523644,336.82432308531645 C995.7569066097863,320.1853345904434 970.9990025570519,316.872556117543 944.9610081722863,320.2923902545059 C927.2535191586144,322.61809292174223 911.5342808773644,329.62384167052153 897.3656407406456,341.675893214711M1027.0762425472863,400.2544263873184 C1023.9651585629113,397.546197322377 1020.2775670101769,395.84089031554106 1016.2379246761925,395.8365720782364 C1008.2215672543175,395.8279890093887 1000.2884617855675,402.79511394835356 998.9622288754113,410.50297680235747 C997.5920811703331,418.46624889708403 1002.62598619963,426.96644726134184 1010.4814244320519,429.9540571246231 C1017.7855626156456,432.73198070860747 1026.3893834164269,430.02496471739653 1030.7634984066613,423.57264843321684 C1036.0571080258019,415.7641157183731 1035.0328770687706,408.4378217730606 1027.0762425472863,400.2544263873184M917.6586094906456,424.93132152891997 C922.0714360287316,419.0703138384903 923.9621220638878,412.68226757384184 919.9762517025597,406.02562847472075 C916.3216801693566,399.9222425494278 910.8839055111534,395.3448347125137 903.3922978451378,395.96305981016997 C895.2230015804894,396.63720074034575 889.8745823910363,401.65593090391997 887.4947148373253,409.6212476763809 C885.3894444515831,416.6675581011856 888.6871739437706,424.33757152891997 895.7580052425988,428.7823347125137 C902.2025853207238,432.83342113829497 910.4774724056847,431.5380720172012 917.6586094906456,424.93132152891997 C917.6586094906456,424.93132152891997 917.6586094906456,424.93132152891997 917.6586094906456,424.93132152891997 Z" fill="#000000"/>
		</g>
	</g>
</g></g></svg>