<svg xmlns="http://www.w3.org/2000/svg" viewBox="0 0 1919 1079" width="1919" height="1079"><defs></defs><g>
<rect fill="#ffffff" x="0" y="0" width="1920" height="1080"/>
<g>
	<g>
		<g>
			<path d="M893.5591527035363,755.3547529254043 C882.8636265804894,751.129807857045 872.4020176937706,747.2894453082168 862.3349858334191,742.6017622027481 C844.7098790218956,734.3946394000137 828.9665394833214,723.3095563922012 814.1636677792198,710.6663373980606 C798.668840508712,697.4321149859512 785.3449116757042,682.3163618121231 774.296281914962,665.3953107867325 C758.1595288326866,640.6817487750137 746.9743290951378,613.8963483843887 741.2451230099327,584.6459821734512 C737.2275105526573,564.1341413531387 736.6135273983605,543.5723737750137 737.8220845272667,523.0683607134903 C739.2081128170616,499.55331554747465 744.9809819271691,476.7521070513809 754.2566548397667,454.8769086871231 C762.9941884091027,434.2708295855606 774.2554722836144,415.20501842833403 788.4828282406456,398.07011547423247 C805.8784199764855,377.11952343321684 826.5405598690636,359.8862165484512 850.2941075375206,346.3042730364883 C873.8823948910363,332.81681194640043 899.0133305599816,323.3944105181778 925.7602330258019,319.73137417174223 C943.6894780209191,317.27592983580473 962.1082249691613,316.89439144469145 980.2171422054894,317.6794637713516 C997.830820184005,318.4430707964981 1015.1720067074425,322.45842495299223 1032.0492955258019,328.1323560748184 C1054.8033848812706,335.78201809264067 1075.9836216976769,346.5168317828262 1095.1609593441613,360.7972044024551 C1111.7933140804894,373.18246593809965 1126.50293932463,387.6496595416153 1139.1902562191613,404.28688183165434 C1154.07715807463,423.80848827696684 1165.5675755550988,444.9185651812637 1173.6130162289269,468.07487621641997 C1179.2821141293175,484.39166393614653 1183.4912510922081,500.99305858946684 1184.4430028011925,518.2381452593887 C1185.2100621273644,532.1369642291153 1186.3164769222863,546.1638349566543 1185.2735386898644,559.9830488238418 C1183.4878331234581,583.6438154254043 1177.9447117855675,606.61833324767 1168.5380040218956,628.5735639605606 C1161.4852086117394,645.03483715392 1152.9198094418175,660.6989912066543 1142.1851597836144,674.9249128375137 C1129.6991673519738,691.4718183550918 1115.3133030941613,706.23942699767 1098.6822300961144,718.9816450152481 C1077.4462681820519,735.2520612750137 1054.4317112972863,747.8871015582168 1028.89454088713,755.3670209918106 C1014.6828099300988,759.5296491656387 999.9176426937706,762.3657392535293 985.2015782406456,764.0798200640762 C971.4333897640831,765.6835798297012 957.3434392025597,765.9562543902481 943.4993077328331,765.11003246642 C926.6725102474816,764.081468013295 910.0078526547081,761.0051130328262 893.5591527035363,755.3547529254043M1034.5067845394738,398.8522581133926 C1003.6977025082238,383.3712476763809 971.2986241390831,377.88966503477934 937.1437169125206,383.29078808165434 C894.3279820492394,390.0615018878067 859.8626195004113,410.92070141173247 833.6660405209191,445.25502148009184 C815.6988392880089,468.80360546446684 805.419183831466,495.48028698302153 802.3611928036339,525.0663618121231 C799.8678532650597,549.1895002398575 802.5009633114464,572.6530622515762 810.7957097103722,595.2763837847793 C824.3550129940636,632.2584394488418 848.2298527767784,660.8401655230606 882.588632684005,680.4385236773575 C916.1577855160363,699.5864423785293 952.1601353695519,705.6692976031387 989.9813633968956,698.8405927691543 C1029.3153477718956,691.7387556109512 1061.7234898617394,672.330979732045 1086.6330357601769,640.8285993609512 C1116.4187718441613,603.1593793902481 1127.447031121505,560.2668012652481 1119.0123997738488,513.33659496642 C1109.7964573910363,462.05917492247465 1081.0048008968956,424.1005720172012 1034.5067845394738,398.8522581133926 C1034.5067845394738,398.8522581133926 1034.5067845394738,398.8522581133926 1034.5067845394738,398.8522581133926 Z" fill="#fbc34e"/>
		</g>
		<g>
			<path d="M1034.8373204281456,399.02067699766997 C1081.0048008968956,424.1005720172012 1109.7964573910363,462.05917492247465 1119.0123997738488,513.33659496642 C1127.447031121505,560.2668012652481 1116.4187718441613,603.1593793902481 1086.6330357601769,640.8285993609512 C1061.7234898617394,672.330979732045 1029.3153477718956,691.7387556109512 989.9813633968956,698.8405927691543 C952.1601353695519,705.6692976031387 916.1577855160363,699.5864423785293 882.588632684005,680.4385236773575 C848.2298527767784,660.8401655230606 824.3550129940636,632.2584394488418 810.7957097103722,595.2763837847793 C802.5009633114464,572.6530622515762 799.8678532650597,549.1895002398575 802.3611928036339,525.0663618121231 C805.419183831466,495.48028698302153 815.6988392880089,468.80360546446684 833.6660405209191,445.25502148009184 C859.8626195004113,410.92070141173247 894.3279820492394,390.0615018878067 937.1437169125206,383.29078808165434 C971.2986241390831,377.88966503477934 1003.6977025082238,383.3712476763809 1034.8373204281456,399.02067699766997M994.073007684005,587.4673627886856 C998.7228184750206,580.5686506304825 1004.7364598324425,575.2073225054825 1012.0871068050988,571.3003706011856 C1017.8113499691613,568.2578596148575 1023.5471898129113,565.2256940875137 1029.1524449398644,561.9728559527481 C1045.7862034847863,552.3200849566543 1045.8616124203331,530.5310987505997 1029.2893773129113,520.8388532672012 C1023.6966038754113,517.5679334673965 1017.961679559005,514.5346998248184 1012.2365208675988,511.4968122515762 C1003.1466466000206,506.6735395464981 996.2035618832238,499.7565931353653 991.3639622738488,490.67315807677153 C988.3937779476769,485.09848156309965 985.39356432463,479.53505077696684 982.2278233578331,474.07023754454497 C972.4504796078331,457.19218578673247 950.6235905697472,457.17448559141997 940.8478642513878,474.04000988341215 C937.5982304623253,479.6464399371231 934.560785393966,485.3767866168106 931.4690190365441,491.0736402545059 C926.7344914486534,499.79742565489653 920.0383854916222,506.53517284727934 911.2935887386925,511.2491315875137 C905.4412632992394,514.4038557086075 899.5391942074425,517.4773420367325 893.7973424008019,520.823914912709 C877.1872044613488,530.504823115834 877.253656487716,552.2257246050918 893.8740788509972,561.9389814410293 C896.1678715756066,563.2795270953262 898.4768315365441,564.6374982867325 900.905511956466,565.6967939410293 C917.4955540707238,572.9326032672012 929.7088261654503,584.5192731890762 936.8255406429894,601.3151411089981 C937.8574467709191,603.7504438433731 939.3530522396691,605.9895795855606 940.638177972091,608.3172468218887 C945.2024174740441,616.5841840777481 952.2359257748253,621.2409528765762 961.6381321957238,621.19011059142 C971.0324498226769,621.13932934142 978.0059910824425,616.4405683550918 982.5220738461144,608.1236738238418 C986.171152215255,601.4035200152481 989.9407750179894,594.7488264117325 994.073007684005,587.4673627886856 C994.073007684005,587.4673627886856 994.073007684005,587.4673627886856 994.073007684005,587.4673627886856 Z" fill="#e5a533"/>
		</g>
		<g>
			<path d="M993.8649388363488,587.7662214312637 C989.9407750179894,594.7488264117325 986.171152215255,601.4035200152481 982.5220738461144,608.1236738238418 C978.0059910824425,616.4405683550918 971.0324498226769,621.13932934142 961.6381321957238,621.19011059142 C952.2359257748253,621.2409528765762 945.2024174740441,616.5841840777481 940.638177972091,608.3172468218887 C939.3530522396691,605.9895795855606 937.8574467709191,603.7504438433731 936.8255406429894,601.3151411089981 C929.7088261654503,584.5192731890762 917.4955540707238,572.9326032672012 900.905511956466,565.6967939410293 C898.4768315365441,564.6374982867325 896.1678715756066,563.2795270953262 893.8740788509972,561.9389814410293 C877.253656487716,552.2257246050918 877.1872044613488,530.504823115834 893.7973424008019,520.823914912709 C899.5391942074425,517.4773420367325 905.4412632992394,514.4038557086075 911.2935887386925,511.2491315875137 C920.0383854916222,506.53517284727934 926.7344914486534,499.79742565489653 931.4690190365441,491.0736402545059 C934.560785393966,485.3767866168106 937.5982304623253,479.6464399371231 940.8478642513878,474.04000988341215 C950.6235905697472,457.17448559141997 972.4504796078331,457.19218578673247 982.2278233578331,474.07023754454497 C985.39356432463,479.53505077696684 988.3937779476769,485.09848156309965 991.3639622738488,490.67315807677153 C996.2035618832238,499.7565931353653 1003.1466466000206,506.6735395464981 1012.2365208675988,511.4968122515762 C1017.961679559005,514.5346998248184 1023.6966038754113,517.5679334673965 1029.2893773129113,520.8388532672012 C1045.8616124203331,530.5310987505997 1045.7862034847863,552.3200849566543 1029.1524449398644,561.9728559527481 C1023.5471898129113,565.2256940875137 1017.8113499691613,568.2578596148575 1012.0871068050988,571.3003706011856 C1004.7364598324425,575.2073225054825 998.7228184750206,580.5686506304825 993.8649388363488,587.7662214312637 C993.8649388363488,587.7662214312637 993.8649388363488,587.7662214312637 993.8649388363488,587.7662214312637 Z" fill="#e4edf1"/>
		</g>
	</g>
</g></g></svg>