<svg xmlns="http://www.w3.org/2000/svg" viewBox="0 0 1920 1080" width="1920" height="1080"><defs></defs><g>
<rect fill="#ffffff" fill-opacity="0" x="0" y="0" width="1920" height="1080"/>
<g>
	<g>
		<g>
			<path d="M1164.5263157894738,285.35087719298247 C1182.1801549008019,285.35087719298247 1199.8339634945519,285.35087719298247 1217.4848118832238,285.3508792195404 C1217.4818211605675,456.01754894591215 1217.4818211605675,626.6842206988418 1217.4818211605675,797.3508771929825 C1205.4460850765831,797.3508771929825 1193.4548741390831,797.3508771929825 1180.9949742367394,796.882249263295 C1180.5263157894738,761.7493452105606 1180.4579564144738,727.0849164996231 1180.5622349789269,692.4210371050918 C1180.6003819515831,679.7480024371231 1178.2692662289269,667.3923200640762 1174.0435887386925,655.68229809142 C1165.9617711117394,633.28630199767 1153.4860020687706,613.7393659625137 1134.9800206234581,598.0461286578262 C1119.9065342953331,585.2636884722793 1103.0164891293175,576.4709638629043 1084.3022252133019,570.8460554156387 C1082.8609715511925,570.4128889117325 1080.1510411312706,571.1623701129043 1079.2876378109581,572.30876293517 C1069.1697178890831,585.7432111773575 1059.3228856136925,599.3813642535293 1049.3440648129113,612.9212202105606 C1036.9508458187706,629.7370161089981 1024.4995518734581,646.5099958453262 1012.0761204769738,663.3035749468887 C1000.7147923519738,678.6613935504043 989.3750401547081,694.0352033648575 977.9900609066613,709.3754438433731 C972.7033177425988,716.4988569293106 967.3318882992394,723.5594648394668 961.6507359554894,731.1112836871231 C960.3230382015831,729.498460200795 959.3726597836144,728.4422773394668 958.5306798031456,727.3057416949356 C951.4957371761925,717.8098310504043 944.5157567074425,708.2730573687637 937.4524937679894,698.7983259234512 C922.538812737716,678.7929548297012 907.5069829037316,658.8751997027481 892.6686497738488,638.8142560992325 C877.180429559005,617.8747419390762 861.7569523861534,596.8852094683731 846.5530491879113,575.7392744097793 C843.2269383480675,571.1132673297012 840.2396336605675,568.649827388295 834.6834660580284,572.2282270464981 C832.7493992855675,573.4738325152481 830.0857487728722,573.52458324767 827.8559361508019,574.3825544390762 C803.779779534591,583.6463483843887 783.6129017880089,598.2383894000137 768.3359089901573,619.1144880328262 C750.2324772884972,643.8528608355606 741.690382104171,671.4986127886856 742.371477227462,702.3612836871231 C743.0699177792198,734.0102094683731 742.5263157894738,765.6865400347793 742.5263157894738,797.3508771929825 C730.201950173629,797.3508771929825 717.8775845577843,797.3508771929825 705.5765408089287,797.3508771929825 C705.5765408089287,626.6841901812637 705.5765408089287,456.0175336871231 705.5765408089287,285.35087719298247 C722.9475098660118,285.35087719298247 740.2682553341515,285.35087719298247 758.0576573422081,285.8195342097366 C758.5263157894738,295.89169445372465 758.5263157894738,305.4951967272842 758.5263157894738,315.48852482176665 C785.7954960873253,315.48852482176665 812.5351429989464,315.48852482176665 839.6680394222863,315.48852482176665 C839.6680394222863,348.62432995177153 839.6680394222863,381.36317577696684 839.6680394222863,414.0827650103653 C921.1344853451378,414.0827650103653 1002.2020665218956,414.0827650103653 1083.6675816586144,414.0827650103653 C1083.6675816586144,381.0778821978653 1083.6675816586144,348.3390325579727 1083.6675816586144,315.6245779070938 C1091.8081761410363,315.6245779070938 1099.5476780941613,315.6245779070938 1107.6791173031456,315.6245779070938 C1107.6791173031456,344.3020452532852 1107.6791173031456,372.7080854449356 1107.6791173031456,401.0713972125137 C1117.819589715255,401.0713972125137 1127.5586949398644,401.0713972125137 1137.690683465255,401.0713972125137 C1137.690683465255,372.3880247149551 1137.690683465255,343.98196926451567 1137.690683465255,315.1806654009903 C1146.828867059005,315.1806654009903 1155.5740147640831,315.1806654009903 1164.5263157894738,315.1806654009903 C1164.5263157894738,304.9714674029434 1164.5263157894738,295.16117229796293 1164.5263157894738,285.35087719298247M1053.5263157894738,458.8551343951309 C1053.5263157894738,454.08944835997465 1053.5263157894738,449.3237623248184 1053.5263157894738,444.59501781798247 C991.9156895687706,444.59501781798247 930.8732701351769,444.59501781798247 870.5245457699425,444.59501781798247 C870.5245457699425,458.7153333697403 869.9470006039269,472.61447277403715 870.668207268966,486.4458784136856 C871.606439690841,504.43934765196684 879.369394402755,520.1466077838028 890.6465703060753,533.7300428423965 C908.7830449154503,555.5755781207168 932.8531437924034,566.6314252886856 960.9844456722863,566.9437116656387 C980.9632664730675,567.1655134234512 999.8421727230675,561.4628461871231 1016.1348668148644,549.1230329547012 C1030.8883153011925,537.9490522418106 1041.5563756039269,523.7046064410293 1048.084726434005,506.3350385699356 C1053.7474156429894,491.2686780963028 1053.8453160336144,475.5966352496231 1053.5263157894738,458.8551343951309M953.9650364925988,595.3508771929825 C949.554452996505,595.01139965392 945.0206700375206,595.2121748004043 940.7545414974816,594.2392744097793 C921.9619847347863,589.953538325795 904.1137944271691,583.4279951129043 888.7937260677941,571.1899885211075 C885.1271763851769,568.2610639605606 881.5475407650597,564.4564985308731 875.5426274349816,566.9496931109512 C904.0313206722863,605.4616254839981 932.4659062435753,643.9004377398575 961.5056859066613,683.1573652300918 C990.4180699398644,644.098557857045 1019.0054417660363,605.4788068804825 1047.7874241879113,566.5961774859512 C1043.0405064633019,566.0255292925918 1039.7776890804894,566.6111616168106 1036.3449193050988,569.6744550738418 C1031.6017552425988,573.9070600543106 1025.9020176937706,577.1898359332168 1020.2953587582238,580.3106245074356 C999.9807835629113,591.6180585894668 978.2250462582238,596.9717878375137 953.9650364925988,595.3508771929825 C953.9650364925988,595.3508771929825 953.9650364925988,595.3508771929825 953.9650364925988,595.3508771929825 Z" fill="none"/>
		</g>
		<g>
			<path d="M742.9949742367394,797.3508771929825 C742.5263157894738,765.6865400347793 743.0699177792198,734.0102094683731 742.371477227462,702.3612836871231 C741.690382104171,671.4986127886856 750.2324772884972,643.8528608355606 768.3359089901573,619.1144880328262 C783.6129017880089,598.2383894000137 803.779779534591,583.6463483843887 827.8559361508019,574.3825544390762 C830.0857487728722,573.52458324767 832.7493992855675,573.4738325152481 834.6834660580284,572.2282270464981 C840.2396336605675,568.649827388295 843.2269383480675,571.1132673297012 846.5530491879113,575.7392744097793 C861.7569523861534,596.8852094683731 877.180429559005,617.8747419390762 892.6686497738488,638.8142560992325 C907.5069829037316,658.8751997027481 922.538812737716,678.7929548297012 937.4524937679894,698.7983259234512 C944.5157567074425,708.2730573687637 951.4957371761925,717.8098310504043 958.5306798031456,727.3057416949356 C959.3726597836144,728.4422773394668 960.3230382015831,729.498460200795 961.6507359554894,731.1112836871231 C967.3318882992394,723.5594648394668 972.7033177425988,716.4988569293106 977.9900609066613,709.3754438433731 C989.3750401547081,694.0352033648575 1000.7147923519738,678.6613935504043 1012.0761204769738,663.3035749468887 C1024.4995518734581,646.5099958453262 1036.9508458187706,629.7370161089981 1049.3440648129113,612.9212202105606 C1059.3228856136925,599.3813642535293 1069.1697178890831,585.7432111773575 1079.2876378109581,572.30876293517 C1080.1510411312706,571.1623701129043 1082.8609715511925,570.4128889117325 1084.3022252133019,570.8460554156387 C1103.0164891293175,576.4709638629043 1119.9065342953331,585.2636884722793 1134.9800206234581,598.0461286578262 C1153.4860020687706,613.7393659625137 1165.9617711117394,633.28630199767 1174.0435887386925,655.68229809142 C1178.2692662289269,667.3923200640762 1180.6003819515831,679.7480024371231 1180.5622349789269,692.4210371050918 C1180.4579564144738,727.0849164996231 1180.5263157894738,761.7493452105606 1180.5263157894738,796.882249263295 C1034.8387547543175,797.3508771929825 889.1511937191613,797.3508771929825 742.9949742367394,797.3508771929825 C742.9949742367394,797.3508771929825 742.9949742367394,797.3508771929825 742.9949742367394,797.3508771929825 Z" fill="#000000"/>
		</g>
		<g>
			<path d="M1164.0576573422081,285.35087719298247 C1164.5263157894738,295.16117229796293 1164.5263157894738,304.9714674029434 1164.5263157894738,315.1806654009903 C1155.5740147640831,315.1806654009903 1146.828867059005,315.1806654009903 1137.690683465255,315.1806654009903 C1137.690683465255,343.98196926451567 1137.690683465255,372.3880247149551 1137.690683465255,401.0713972125137 C1127.5586949398644,401.0713972125137 1117.819589715255,401.0713972125137 1107.6791173031456,401.0713972125137 C1107.6791173031456,372.7080854449356 1107.6791173031456,344.3020452532852 1107.6791173031456,315.6245779070938 C1099.5476780941613,315.6245779070938 1091.8081761410363,315.6245779070938 1083.6675816586144,315.6245779070938 C1083.6675816586144,348.3390325579727 1083.6675816586144,381.0778821978653 1083.6675816586144,414.0827650103653 C1002.2020665218956,414.0827650103653 921.1344853451378,414.0827650103653 839.6680394222863,414.0827650103653 C839.6680394222863,381.36317577696684 839.6680394222863,348.62432995177153 839.6680394222863,315.48852482176665 C812.5351429989464,315.48852482176665 785.7954960873253,315.48852482176665 758.5263157894738,315.48852482176665 C758.5263157894738,305.4951967272842 758.5263157894738,295.89169445372465 758.5263157894738,285.8195342097366 C893.5472050717003,285.35087719298247 1028.5680943539269,285.35087719298247 1164.0576573422081,285.35087719298247 C1164.0576573422081,285.35087719298247 1164.0576573422081,285.35087719298247 1164.0576573422081,285.35087719298247 Z" fill="#000000"/>
		</g>
		<g>
			<path d="M1053.5263157894738,459.35463085509184 C1053.8453160336144,475.5966352496231 1053.7474156429894,491.2686780963028 1048.084726434005,506.3350385699356 C1041.5563756039269,523.7046064410293 1030.8883153011925,537.9490522418106 1016.1348668148644,549.1230329547012 C999.8421727230675,561.4628461871231 980.9632664730675,567.1655134234512 960.9844456722863,566.9437116656387 C932.8531437924034,566.6314252886856 908.7830449154503,555.5755781207168 890.6465703060753,533.7300428423965 C879.369394402755,520.1466077838028 871.606439690841,504.43934765196684 870.668207268966,486.4458784136856 C869.9470006039269,472.61447277403715 870.5245457699425,458.7153333697403 870.5245457699425,444.59501781798247 C930.8732701351769,444.59501781798247 991.9156895687706,444.59501781798247 1053.5263157894738,444.59501781798247 C1053.5263157894738,449.3237623248184 1053.5263157894738,454.08944835997465 1053.5263157894738,459.35463085509184 C1053.5263157894738,459.35463085509184 1053.5263157894738,459.35463085509184 1053.5263157894738,459.35463085509184 Z" fill="#000000"/>
		</g>
		<g>
			<path d="M954.4332982113488,595.3508771929825 C978.2250462582238,596.9717878375137 999.9807835629113,591.6180585894668 1020.2953587582238,580.3106245074356 C1025.9020176937706,577.1898359332168 1031.6017552425988,573.9070600543106 1036.3449193050988,569.6744550738418 C1039.7776890804894,566.6111616168106 1043.0405064633019,566.0255292925918 1047.7874241879113,566.5961774859512 C1019.0054417660363,605.4788068804825 990.4180699398644,644.098557857045 961.5056859066613,683.1573652300918 C932.4659062435753,643.9004377398575 904.0313206722863,605.4616254839981 875.5426274349816,566.9496931109512 C881.5475407650597,564.4564985308731 885.1271763851769,568.2610639605606 888.7937260677941,571.1899885211075 C904.1137944271691,583.4279951129043 921.9619847347863,589.953538325795 940.7545414974816,594.2392744097793 C945.0206700375206,595.2121748004043 949.554452996505,595.01139965392 954.4332982113488,595.3508771929825 C954.4332982113488,595.3508771929825 954.4332982113488,595.3508771929825 954.4332982113488,595.3508771929825 Z" fill="#000000"/>
		</g>
	</g>
</g></g></svg>

