<svg xmlns="http://www.w3.org/2000/svg" viewBox="0 0 1920 1080" width="1920" height="1080"><defs></defs><g>
<rect fill="#ffffff" fill-opacity="0" x="0" y="0" width="1920" height="1080"/>
<g>
	<g/>
	<g>
		<g>
			<path d="M977.5263157894738,820.8508771929825 C879.2148991634972,820.8508771929825 781.4034901669152,820.8508771929825 683.5591957380898,820.8508771929825 C683.5591957380898,634.58122387267 683.5591957380898,448.3115552935684 683.5591957380898,261.9463801655853 C868.7544194271691,261.9463801655853 1053.9825841000206,261.9463801655853 1239.3685399105675,261.9463801655853 C1239.3685399105675,448.18409862852934 1239.3685399105675,634.5174726519668 1239.3685399105675,820.8508771929825 C1152.3202611019738,820.8508771929825 1065.1732884457238,820.8508771929825 977.5263157894738,820.8508771929825M950.5795689633019,573.356858638295 C1004.3072606136925,579.2058271441543 1051.1265965511925,540.3975996050918 1054.5781651547081,486.44535961485747 C1055.6816197445519,469.19694652891997 1054.8648472836144,451.8255170855606 1054.9014073422081,434.5103315386856 C1054.9019871761925,434.23890819884184 1054.5785313656456,433.9667982134903 1054.2022191097863,433.37298717833403 C1018.0529576351769,430.65426769591215 985.4613438656456,419.52484264708403 961.494882684005,389.9699720416153 C937.2143193295128,419.90976085997465 904.4454747250206,430.7118696246231 868.3545170834191,433.46132030821684 C868.3545170834191,451.80063000059965 867.4521275570519,469.49896374083403 868.5314122250206,487.07562389708403 C871.2718297054894,531.7045759234512 905.4367009213097,567.4687971148575 950.5795689633019,573.356858638295M929.3958226254113,285.10806598997954 C928.2853642513878,285.4574007067764 927.1751652767784,285.8076032672012 926.0643864681847,286.15594807005766 C874.8988896420128,302.2020696673477 843.3958531429894,344.5163816485489 842.7051793148644,398.1491254839981 C842.6866551449425,399.58798351622465 842.8611851742394,401.0293287310684 842.9456883480675,402.46977367735747 C850.8079167416222,402.46977367735747 858.2801610043175,402.72218456602934 865.7292119076378,402.41398754454497 C878.7774754574425,401.8741468463028 891.5841008236534,399.7604841265762 903.7796116879113,394.88115063048247 C923.476327996505,387.0006650958145 938.6608677914269,374.3549665484512 946.4226780941613,353.98517742491606 C949.3627110531456,346.2693952593887 954.3357335140831,342.6257413897598 961.68165026213,342.67714062071684 C968.9589634945519,342.7280591998184 973.1584874203331,346.7161497149551 976.9123326351769,354.18942394591215 C980.7515965511925,361.8327726397598 984.8498936703331,369.8389905963028 990.6897984554894,375.89862957335356 C1015.2699986508019,401.40365734434965 1047.2585850765831,403.2715925250137 1079.8519383480675,402.69406261778715 C1083.1280613949425,379.4359373126114 1071.5092259457238,342.61625042296293 1053.6941319515831,323.15694179869536 C1020.1145421078331,286.4782499346817 978.7993870785363,273.64584579802397 929.3958226254113,285.10806598997954M946.09034166838,800.2668928179825 C946.09034166838,756.6379255328262 946.09034166838,713.00895824767 946.09034166838,669.2963727984512 C927.1842442562706,664.7841352496231 912.2635899593956,654.6602338824356 899.6362858822472,640.758714107045 C898.7061101009972,639.7346967730606 896.3803196957238,639.0546735797012 895.0711003353722,639.4457868609512 C885.2046452572472,642.3931135211075 875.4604741146691,645.7476362261856 865.6113072445519,648.7563032183731 C862.0433445980675,649.8462385211075 861.2308140804894,651.7527936968887 861.7119389584191,655.3364728961075 C867.923105340255,701.6017622027481 871.9382115414269,748.0573591265762 873.3603306820519,794.7247175250137 C873.5005436947472,799.32585277892 873.3791142513878,803.934983638295 873.3791142513878,808.5139631304825 C898.0558720638878,808.5139631304825 921.9366856625206,808.5139631304825 946.0903111508019,808.5139631304825 C946.0903111508019,805.8627790484512 946.0903111508019,803.549241450795 946.09034166838,800.2668928179825M977.1113682797081,777.91667309142 C977.1113682797081,788.1672834429825 977.1113682797081,798.417893794545 977.1113682797081,808.452561763295 C1001.5518590023644,808.452561763295 1025.4503880550988,808.452561763295 1049.37061510588,808.452561763295 C1050.3099766781456,756.6922773394668 1054.6004124691613,705.5938276324356 1061.4202672054894,654.7003034625137 C1061.8652745297081,651.3793806109512 1060.7813817074425,649.83952465392 1057.7761632015831,648.8940900836075 C1047.7952672054894,645.7540449175918 1037.8763524105675,642.41423168517 1027.8646946957238,639.3784650836075 C1026.6512852718956,639.0105146441543 1024.4883214047081,639.5544904742325 1023.6571141293175,640.4782270464981 C1010.9804478695519,654.5655378375137 995.9510594418175,664.8107770953262 977.3124486019738,669.2062849078262 C977.3124486019738,677.7090620074356 977.3124486019738,685.94792309142 977.3124486019738,694.552171138295 C985.8010960629113,694.552171138295 993.9455967953331,694.3870710406387 1002.0806065609581,694.5950788531387 C1011.6781712582238,694.8404706988418 1018.4438267758019,702.5323652300918 1017.4674473812706,711.7168439898575 C1016.6328831722863,719.5669721636856 1010.2007542660363,725.2283185992325 1001.594492059005,725.3841413531387 C993.4977513363488,725.5307477984512 985.3963109066613,725.4155744586075 977.3329869320519,725.4155744586075 C977.3329869320519,732.6717695269668 977.3329869320519,739.2219709429825 977.3329869320519,745.6428083453262 C977.865488152755,745.8081525836075 978.0243931820519,745.9001325640762 978.1837864925988,745.9009260211075 C985.8456212093956,745.9395917925918 993.5084019711144,745.9087385211075 1001.1691685726769,746.0175336871231 C1010.83057604338,746.1547407183731 1017.6805821468956,752.8184980425918 1017.5409642269738,761.809983638295 C1017.4045811703331,770.5955671343887 1010.6539708187706,776.8286603961075 1001.1070042660363,776.9438947711075 C993.282480340255,777.0383161578262 985.4574681332238,777.0930036578262 977.1113682797081,777.91667309142M788.8297902157433,762.4955915484512 C788.5270405819542,772.1512006793106 788.2012425472863,781.8061384234512 787.9277058651573,791.46257152892 C787.6243535092003,802.1714948687637 793.9586888363488,808.7620710406387 804.609254937423,808.8484357867325 C808.6065617611534,808.8808454547012 812.6043644955284,808.853928950795 816.6019383480675,808.8539899859512 C825.2082158138878,808.8540510211075 833.8144932797081,808.8539899859512 842.6748753597863,808.8539899859512 C842.0126744320519,762.0648969683731 838.0880375912316,716.1614851031387 832.3395024349816,669.4703229937637 C804.7869969418175,694.8325971636856 789.8207875301964,724.8826154742325 788.8297902157433,762.4955915484512M1089.4192906429894,680.2075056109512 C1084.4166966488488,722.8347944293106 1080.9217015316613,765.5610517535293 1080.3822423031456,808.8536237750137 C1093.4630528500206,808.8536237750137 1105.9337864925988,808.8914045367325 1118.4041844418175,808.8420881304825 C1129.0359898617394,808.8000349078262 1135.41895494963,802.1640485797012 1135.108652215255,791.4770368609512 C1134.7846470883019,780.319260982045 1134.4243565609581,769.1619123492325 1133.9766636898644,758.0085004839981 C1132.8834019711144,730.7713483843887 1123.1982823422081,706.7669233355606 1106.1881810238488,685.6838850054825 C1101.6549778988488,680.0652936968887 1096.35596666838,675.0645612750137 1090.7574864437706,669.0847028765762 C1090.2209263851769,673.3894819293106 1089.8512059261925,676.3559431109512 1089.4192906429894,680.2075056109512M924.6152897884972,622.0121931109512 C947.7894383480675,645.8056501422012 976.5315953304894,645.8210920367325 998.4046727230675,621.9947370562637 C999.4447117855675,620.8618635211075 1000.9121800472863,619.0160078082168 1000.6113072445519,617.9416364703262 C998.9777623226769,612.1080183062637 996.8507176449425,606.4125532183731 994.8227330258019,600.4617170367325 C972.4999180843956,606.5083173785293 950.0007725765831,606.2077497515762 928.1855717709191,600.515550044545 C926.2196141293175,606.3764509234512 924.3053227474816,611.4983686480606 922.8741246273644,616.7519392047012 C922.5058842709191,618.1036542925918 923.6586094906456,619.8697370562637 924.6152897884972,622.0121931109512M837.119623284591,444.39958324766997 C837.119623284591,440.80157604552153 837.119623284591,437.2035688433731 837.119623284591,433.3901685748184 C823.5813542416222,432.41537609434965 813.1121922543175,436.75712719298247 806.2096348812706,447.77385082579497 C799.5428029110558,458.4143842730606 799.513422112716,469.66273632384184 806.1546879818566,480.3319868121231 C813.2688237240441,491.7608961138809 824.15186510588,495.91948070860747 837.11963854338,494.99186840391997 C837.11963854338,478.2568677935684 837.11963854338,461.82179394102934 837.119623284591,444.39958324766997M1086.3738194515831,495.0364851031387 C1090.01758776213,494.7900709185684 1093.7508946468956,494.9692243609512 1097.2897740414269,494.22450390196684 C1113.7492161800988,490.7608503375137 1124.4741002133019,474.28354015684965 1121.0486851742394,458.08598461485747 C1117.5940342953331,441.74992504454497 1101.8966466000206,430.75514355040434 1085.6146641781456,434.00148144102934 C1085.6146641781456,454.08868542052153 1085.6146641781456,474.3448499713028 1086.3738194515831,495.0364851031387 C1086.3738194515831,495.0364851031387 1086.3738194515831,495.0364851031387 1086.3738194515831,495.0364851031387 Z" fill="none"/>
		</g>
		<g>
			<path d="M950.1366673519738,573.2689374957168 C905.4367009213097,567.4687971148575 871.2718297054894,531.7045759234512 868.5314122250206,487.07562389708403 C867.4521275570519,469.49896374083403 868.3545170834191,451.80063000059965 868.3545170834191,433.46132030821684 C904.4454747250206,430.7118696246231 937.2143193295128,419.90976085997465 961.494882684005,389.9699720416153 C985.4613438656456,419.52484264708403 1018.0529576351769,430.65426769591215 1054.2022191097863,433.37298717833403 C1054.5785313656456,433.9667982134903 1054.9019871761925,434.23890819884184 1054.9014073422081,434.5103315386856 C1054.8648472836144,451.8255170855606 1055.6816197445519,469.19694652891997 1054.5781651547081,486.44535961485747 C1051.1265965511925,540.3975996050918 1004.3072606136925,579.2058271441543 950.1366673519738,573.2689374957168M950.6302891781456,499.0247358355606 C942.5431920101769,495.2429517779434 935.0496007015831,496.5982221636856 930.4029027035363,502.68304577208403 C925.573984246505,509.0064710650528 926.1680851986534,516.7991193804825 932.0005131771691,523.6386274371231 C947.5839634945519,541.9128889117325 978.1285801937706,541.2064985308731 992.3673497250206,521.9590925250137 C994.47803698088,519.1059736285293 995.64405260588,514.9888471636856 995.8128453304894,511.3892377886856 C996.1083165218956,505.0887464556778 991.8304844906456,499.7445386920059 985.9833470394738,497.7409223589981 C979.2739964535363,495.44181957579497 973.5803624203331,497.2265485797012 968.7207737972863,502.26844921446684 C963.8914586117394,507.27897777891997 959.3724461605675,507.2818616900528 954.5820103695519,502.4531568560684 C953.5313817074425,501.39413585997465 952.3622838070519,500.45269909239653 950.6302891781456,499.0247358355606 C950.6302891781456,499.0247358355606 950.6302891781456,499.0247358355606 950.6302891781456,499.0247358355606 Z" fill="#020202"/>
		</g>
		<g>
			<path d="M929.795892815841,285.03055706358793 C978.7993870785363,273.64584579802397 1020.1145421078331,286.4782499346817 1053.6941319515831,323.15694179869536 C1071.5092259457238,342.61625042296293 1083.1280613949425,379.4359373126114 1079.8519383480675,402.69406261778715 C1047.2585850765831,403.2715925250137 1015.2699986508019,401.40365734434965 990.6897984554894,375.89862957335356 C984.8498936703331,369.8389905963028 980.7515965511925,361.8327726397598 976.9123326351769,354.18942394591215 C973.1584874203331,346.7161497149551 968.9589634945519,342.7280591998184 961.68165026213,342.67714062071684 C954.3357335140831,342.6257413897598 949.3627110531456,346.2693952593887 946.4226780941613,353.98517742491606 C938.6608677914269,374.3549665484512 923.476327996505,387.0006650958145 903.7796116879113,394.88115063048247 C891.5841008236534,399.7604841265762 878.7774754574425,401.8741468463028 865.7292119076378,402.41398754454497 C858.2801610043175,402.72218456602934 850.8079167416222,402.46977367735747 842.9456883480675,402.46977367735747 C842.8611851742394,401.0293287310684 842.6866551449425,399.58798351622465 842.7051793148644,398.1491254839981 C843.3958531429894,344.5163816485489 874.8988896420128,302.2020696673477 926.0643864681847,286.15594807005766 C927.1751652767784,285.8076032672012 928.2853642513878,285.4574007067764 929.795892815841,285.03055706358793 C929.795892815841,285.03055706358793 929.795892815841,285.03055706358793 929.795892815841,285.03055706358793 Z" fill="#020202"/>
		</g>
		<g>
			<path d="M946.09034166838,800.7512678179825 C946.0903111508019,803.549241450795 946.0903111508019,805.8627790484512 946.0903111508019,808.5139631304825 C921.9366856625206,808.5139631304825 898.0558720638878,808.5139631304825 873.3791142513878,808.5139631304825 C873.3791142513878,803.934983638295 873.5005436947472,799.32585277892 873.3603306820519,794.7247175250137 C871.9382115414269,748.0573591265762 867.923105340255,701.6017622027481 861.7119389584191,655.3364728961075 C861.2308140804894,651.7527936968887 862.0433445980675,649.8462385211075 865.6113072445519,648.7563032183731 C875.4604741146691,645.7476362261856 885.2046452572472,642.3931135211075 895.0711003353722,639.4457868609512 C896.3803196957238,639.0546735797012 898.7061101009972,639.7346967730606 899.6362858822472,640.758714107045 C912.2635899593956,654.6602338824356 927.1842442562706,664.7841352496231 946.09034166838,669.2963727984512 C946.09034166838,713.00895824767 946.09034166838,756.6379255328262 946.09034166838,800.7512678179825 C946.09034166838,800.7512678179825 946.09034166838,800.7512678179825 946.09034166838,800.7512678179825 Z" fill="#030303"/>
		</g>
		<g>
			<path d="M977.3720189144738,777.5410017047012 C985.4574681332238,777.0930036578262 993.282480340255,777.0383161578262 1001.1070042660363,776.9438947711075 C1010.6539708187706,776.8286603961075 1017.4045811703331,770.5955671343887 1017.5409642269738,761.809983638295 C1017.6805821468956,752.8184980425918 1010.83057604338,746.1547407183731 1001.1691685726769,746.0175336871231 C993.5084019711144,745.9087385211075 985.8456212093956,745.9395917925918 978.1837864925988,745.9009260211075 C978.0243931820519,745.9001325640762 977.865488152755,745.8081525836075 977.3329869320519,745.6428083453262 C977.3329869320519,739.2219709429825 977.3329869320519,732.6717695269668 977.3329869320519,725.4155744586075 C985.3963109066613,725.4155744586075 993.4977513363488,725.5307477984512 1001.594492059005,725.3841413531387 C1010.2007542660363,725.2283185992325 1016.6328831722863,719.5669721636856 1017.4674473812706,711.7168439898575 C1018.4438267758019,702.5323652300918 1011.6781712582238,694.8404706988418 1002.0806065609581,694.5950788531387 C993.9455967953331,694.3870710406387 985.8010960629113,694.552171138295 977.3124486019738,694.552171138295 C977.3124486019738,685.94792309142 977.3124486019738,677.7090620074356 977.3124486019738,669.2062849078262 C995.9510594418175,664.8107770953262 1010.9804478695519,654.5655378375137 1023.6571141293175,640.4782270464981 C1024.4883214047081,639.5544904742325 1026.6512852718956,639.0105146441543 1027.8646946957238,639.3784650836075 C1037.8763524105675,642.41423168517 1047.7952672054894,645.7540449175918 1057.7761632015831,648.8940900836075 C1060.7813817074425,649.83952465392 1061.8652745297081,651.3793806109512 1061.4202672054894,654.7003034625137 C1054.6004124691613,705.5938276324356 1050.3099766781456,756.6922773394668 1049.37061510588,808.452561763295 C1025.4503880550988,808.452561763295 1001.5518590023644,808.452561763295 977.1113682797081,808.452561763295 C977.1113682797081,798.417893794545 977.1113682797081,788.1672834429825 977.3720189144738,777.5410017047012 C977.3720189144738,777.5410017047012 977.3720189144738,777.5410017047012 977.3720189144738,777.5410017047012 Z" fill="#030303"/>
		</g>
		<g>
			<path d="M788.8548527767784,762.0161603961075 C789.8207875301964,724.8826154742325 804.7869969418175,694.8325971636856 832.3395024349816,669.4703229937637 C838.0880375912316,716.1614851031387 842.0126744320519,762.0648969683731 842.6748753597863,808.8539899859512 C833.8144932797081,808.8539899859512 825.2082158138878,808.8540510211075 816.6019383480675,808.8539899859512 C812.6043644955284,808.853928950795 808.6065617611534,808.8808454547012 804.609254937423,808.8484357867325 C793.9586888363488,808.7620710406387 787.6243535092003,802.1714948687637 787.9277058651573,791.46257152892 C788.2012425472863,781.8061384234512 788.5270405819542,772.1512006793106 788.8548527767784,762.0161603961075 C788.8548527767784,762.0161603961075 788.8548527767784,762.0161603961075 788.8548527767784,762.0161603961075 Z" fill="#020202"/>
		</g>
		<g>
			<path d="M1089.4503880550988,679.7649396929825 C1089.8512059261925,676.3559431109512 1090.2209263851769,673.3894819293106 1090.7574864437706,669.0847028765762 C1096.35596666838,675.0645612750137 1101.6549778988488,680.0652936968887 1106.1881810238488,685.6838850054825 C1123.1982823422081,706.7669233355606 1132.8834019711144,730.7713483843887 1133.9766636898644,758.0085004839981 C1134.4243565609581,769.1619123492325 1134.7846470883019,780.319260982045 1135.108652215255,791.4770368609512 C1135.41895494963,802.1640485797012 1129.0359898617394,808.8000349078262 1118.4041844418175,808.8420881304825 C1105.9337864925988,808.8914045367325 1093.4630528500206,808.8536237750137 1080.3822423031456,808.8536237750137 C1080.9217015316613,765.5610517535293 1084.4166966488488,722.8347944293106 1089.4503880550988,679.7649396929825 C1089.4503880550988,679.7649396929825 1089.4503880550988,679.7649396929825 1089.4503880550988,679.7649396929825 Z" fill="#020202"/>
		</g>
		<g>
			<path d="M924.3639622738488,621.7288068804825 C923.6586094906456,619.8697370562637 922.5058842709191,618.1036542925918 922.8741246273644,616.7519392047012 C924.3053227474816,611.4983686480606 926.2196141293175,606.3764509234512 928.1855717709191,600.515550044545 C950.0007725765831,606.2077497515762 972.4999180843956,606.5083173785293 994.8227330258019,600.4617170367325 C996.8507176449425,606.4125532183731 998.9777623226769,612.1080183062637 1000.6113072445519,617.9416364703262 C1000.9121800472863,619.0160078082168 999.4447117855675,620.8618635211075 998.4046727230675,621.9947370562637 C976.5315953304894,645.8210920367325 947.7894383480675,645.8056501422012 924.3639622738488,621.7288068804825 C924.3639622738488,621.7288068804825 924.3639622738488,621.7288068804825 924.3639622738488,621.7288068804825 Z" fill="#040404"/>
		</g>
		<g>
			<path d="M837.11963854338,444.8931440386856 C837.11963854338,461.82179394102934 837.11963854338,478.2568677935684 837.11963854338,494.99186840391997 C824.15186510588,495.91948070860747 813.2688237240441,491.7608961138809 806.1546879818566,480.3319868121231 C799.513422112716,469.66273632384184 799.5428029110558,458.4143842730606 806.2096348812706,447.77385082579497 C813.1121922543175,436.75712719298247 823.5813542416222,432.41537609434965 837.119623284591,433.3901685748184 C837.119623284591,437.2035688433731 837.119623284591,440.80157604552153 837.11963854338,444.8931440386856 C837.11963854338,444.8931440386856 837.11963854338,444.8931440386856 837.11963854338,444.8931440386856 Z" fill="#070707"/>
		</g>
		<g>
			<path d="M1085.9942418148644,494.81874218321684 C1085.6146641781456,474.3448499713028 1085.6146641781456,454.08868542052153 1085.6146641781456,434.00148144102934 C1101.8966466000206,430.75514355040434 1117.5940342953331,441.74992504454497 1121.0486851742394,458.08598461485747 C1124.4741002133019,474.28354015684965 1113.7492161800988,490.7608503375137 1097.2897740414269,494.22450390196684 C1093.7508946468956,494.9692243609512 1090.01758776213,494.7900709185684 1085.9942418148644,494.81874218321684 C1085.9942418148644,494.81874218321684 1085.9942418148644,494.81874218321684 1085.9942418148644,494.81874218321684 Z" fill="#070707"/>
		</g>
		<g>
			<path d="M950.9390049984581,499.2409223589981 C952.3622838070519,500.45269909239653 953.5313817074425,501.39413585997465 954.5820103695519,502.4531568560684 C959.3724461605675,507.2818616900528 963.8914586117394,507.27897777891997 968.7207737972863,502.26844921446684 C973.5803624203331,497.2265485797012 979.2739964535363,495.44181957579497 985.9833470394738,497.7409223589981 C991.8304844906456,499.7445386920059 996.1083165218956,505.0887464556778 995.8128453304894,511.3892377886856 C995.64405260588,514.9888471636856 994.47803698088,519.1059736285293 992.3673497250206,521.9590925250137 C978.1285801937706,541.2064985308731 947.5839634945519,541.9128889117325 932.0005131771691,523.6386274371231 C926.1680851986534,516.7991193804825 925.573984246505,509.0064710650528 930.4029027035363,502.68304577208403 C935.0496007015831,496.5982221636856 942.5431920101769,495.2429517779434 950.9390049984581,499.2409223589981 C950.9390049984581,499.2409223589981 950.9390049984581,499.2409223589981 950.9390049984581,499.2409223589981 Z" fill="none"/>
		</g>
	</g>
</g></g></svg>